<svg xmlns="http://www.w3.org/2000/svg" xmlns:xlink="http://www.w3.org/1999/xlink" data-name="Layer 2" viewBox="0 0 596.37 192.4">
  <defs>
    <linearGradient id="a" x1="-37.97" x2="228.25" y1="1.18" y2="217.11" gradientUnits="userSpaceOnUse">
      <stop offset=".22" stop-color="#8dc63f"/>
      <stop offset=".79" stop-color="#005d22"/>
    </linearGradient>
  </defs>
  <g data-name="Layer 1">
    <g fill="#005d22">
      <path d="M235.48 112.41h-20.96v29.49h-16.94V67.93c0-4.75 3.78-8.9 8.53-8.9h28.15c17.55 0 26.69 9.38 26.69 26.69 0 16.33-8.9 26.69-25.47 26.69m-4.26-14.99c8.53.12 12.8-3.9 12.8-11.94S240 73.41 232.08 73.41h-17.3v24.01h16.45Zm43.03-38.39c5.36 0 7.92 2.68 7.8 7.92v4.75h-16.21V59.03zm0 18.4c5.24 0 7.8 2.56 7.8 7.8v56.67h-16.21V77.43zm75.97 32.54c0 22.18-9.87 33.39-29.37 33.39s-29.25-11.21-29.25-33.39 9.75-33.51 29.25-33.51 29.37 11.09 29.37 33.51m-42.17 0c.12 12.55 4.39 18.89 12.67 18.89s12.43-6.58 12.55-19.38c0-12.55-4.14-18.77-12.43-18.77s-12.8 6.46-12.8 19.25Zm92.79 31.93c-5.36-.37-8.04-2.93-8.04-8.04v-33.15c-.37-6.7-4.02-9.99-11.21-9.99s-10.85 3.29-10.97 9.99v41.19h-16.45V104c0-18.4 9.26-27.54 27.66-27.54s27.42 9.14 27.3 27.54v37.9zm44.94 1.46c-19.5-.61-29.25-11.94-29.25-33.88s9.87-32.9 29.49-33.03c20.47 0 30.1 12.55 28.88 37.78h-41.68c.61 9.87 4.87 14.87 12.8 14.87 3.78 0 7.31-1.59 10.48-4.63 1.46-1.59 3.29-2.32 5.48-2.32h11.94c-3.53 13.65-12.31 21.2-28.15 21.2Zm-12.31-40.7h24.25c-.98-8.53-5-12.92-11.94-12.92s-11.09 4.39-12.31 12.92m76.83 40.7c-19.5-.61-29.25-11.94-29.25-33.88s9.87-32.9 29.49-33.03c20.47 0 30.1 12.55 28.88 37.78h-41.68c.61 9.87 4.88 14.87 12.8 14.87 3.78 0 7.31-1.59 10.48-4.63 1.46-1.59 3.29-2.32 5.48-2.32h11.94c-3.53 13.65-12.31 21.2-28.15 21.2Zm-12.31-40.7h24.25c-.98-8.53-5-12.92-11.94-12.92s-11.09 4.39-12.31 12.92m46.85 5.97c.49-20.84 11.58-31.2 33.15-31.2h2.31v16.82h-5.48c-9.02 0-13.53 4.75-13.53 14.14v33.51h-16.45z"/>
      <path fill-rule="evenodd" d="M586.88 57.82c4.6 0 8.34 3.73 8.34 8.34s-3.73 8.34-8.34 8.34-8.34-3.73-8.34-8.34 3.73-8.34 8.34-8.34m-2.29 7.55h1.65c1.07 0 1.73-.05 2-.14.26-.09.47-.25.62-.47s.23-.5.23-.83q0-.555-.3-.9c-.2-.23-.48-.37-.84-.43-.18-.03-.72-.04-1.62-.04h-1.74v2.8Zm-2.23 6.35V60.71h4.68c1.18 0 2.03.1 2.57.3s.96.55 1.28 1.05c.32.51.48 1.08.48 1.74 0 .83-.24 1.51-.73 2.05-.48.54-1.21.88-2.17 1.02.48.28.87.59 1.18.92.31.34.73.93 1.26 1.79l1.34 2.15h-2.66L588 69.32c-.57-.85-.96-1.39-1.18-1.62-.21-.22-.43-.37-.67-.46-.24-.08-.61-.12-1.13-.12h-.45v4.6h-2.23Zm4.52-15.05c5.24 0 9.48 4.25 9.48 9.48s-4.25 9.48-9.48 9.48-9.48-4.25-9.48-9.48 4.25-9.48 9.48-9.48"/>
    </g>
    <path fill="url(#a)" d="M6.65 72.53c3.67 0 6.65 2.98 6.65 6.65s-2.98 6.65-6.65 6.65S0 82.85 0 79.18s2.98-6.65 6.65-6.65m69.93-31.56c5.03 0 9.11 4.08 9.11 9.11s-4.08 9.11-9.11 9.11-9.11-4.08-9.11-9.11 4.08-9.11 9.11-9.11m-42.86-1.81c3.67 0 6.65 2.98 6.65 6.65s-2.98 6.65-6.65 6.65-6.65-2.98-6.65-6.65 2.98-6.65 6.65-6.65M10.37 45.4c2.53 0 4.59 2.05 4.59 4.59s-2.05 4.59-4.59 4.59-4.59-2.05-4.59-4.59 2.05-4.59 4.59-4.59m32.31-23.83c2.53 0 4.59 2.05 4.59 4.59s-2.05 4.59-4.59 4.59-4.59-2.05-4.59-4.59 2.05-4.59 4.59-4.59m24.62-4.45c2.53 0 4.59 2.05 4.59 4.59s-2.05 4.59-4.59 4.59-4.59-2.05-4.59-4.59 2.05-4.59 4.59-4.59m28.6-2.37c3.67 0 6.65 2.98 6.65 6.65s-2.98 6.65-6.65 6.65-6.65-2.98-6.65-6.65 2.98-6.65 6.65-6.65M76.49 0c2.53 0 4.59 2.05 4.59 4.59s-2.05 4.59-4.59 4.59-4.59-2.05-4.59-4.59S73.95 0 76.49 0m35.89 45.12c-1.7-8.53-10.01-13.9-18.14-8.3-8.29 5.7-1.26 17.1-8.29 23.91-2.33 2.26-7.15 4.41-11.99 3.42-6.17-1.26-6.35-3.67-9.33-7-8.61-9.61-26.41-5.83-29.38 8.2-.93 4.37 0 9.36 2.32 12.62 2.36 3.33 4.83 4.05 6.4 9.4 1.48 5.07.3 9.62-2.23 13.3-6.26 9.08-15.92 2.74-21.13 11.06-2.3 3.67-2.35 8.89.03 12.56 2.27 3.51 5.78 4.75 11.1 5.24 7.25 36.48 34.54 62.87 72.97 62.87 40.78 0 73.85-33.06 73.85-73.85 0-38.18-28.98-69.59-66.15-73.44ZM42.13 1.14c1.71 0 3.1 1.39 3.1 3.1s-1.39 3.1-3.1 3.1-3.1-1.39-3.1-3.1 1.39-3.1 3.1-3.1M30.31 81.1c5.03 0 9.11 4.08 9.11 9.11s-4.08 9.11-9.11 9.11-9.11-4.08-9.11-9.11 4.08-9.11 9.11-9.11"/>
    <path fill="#fff" d="M100.01 166.78H74.23v-41.96c9.76-5.68 19.54-7.56 31.43-4.91 1.18.47 2.45.8 3.78.97.71.09 1.45.14 2.19.14 8.07 0 14.61-5.73 14.61-12.8s-6.54-12.8-14.61-12.8c-.85 0-1.68.06-2.48.19s-.03 0-.03 0c-.32.05-.64.11-.96.17-10.88 2.13-22.16 9.82-33.94 24.75V85.04c-.01-.16-.02-.33-.02-.49 0-3.9 3.16-7.06 7.05-7.06h21.7c11.22 0 19.11.48 23.67 1.46 4.53.98 8.38 2.64 11.55 4.99 3.71 2.73 6.55 6.14 8.5 10.22 1.95 4.1 2.91 8.64 2.91 13.63 0 5.33-.96 10.01-2.89 14.05-1.93 4.06-4.77 7.37-8.52 9.97-2.84 1.96-6.2 3.35-10.05 4.2s-10.03 1.29-18.5 1.29h-9.63v29.47Z"/>
    <path fill="#005d22" d="m215.22 150.63-.56 3.14h-18.29l.56-3.14zm-7.38 0-5.03 28.94h-3.54l5.03-28.94zm13.74 29.33c-1.39-.03-2.55-.3-3.48-.83a5.74 5.74 0 0 1-2.17-2.15q-.78-1.35-1.02-3.06c-.17-1.14-.18-2.33-.05-3.56l.3-2.42c.16-1.27.46-2.52.89-3.76.44-1.23 1.03-2.35 1.77-3.35s1.66-1.79 2.74-2.38c1.09-.58 2.36-.85 3.82-.8 1.44.04 2.59.37 3.44.97s1.47 1.4 1.87 2.38q.6 1.47.69 3.24c.06 1.18.02 2.36-.13 3.54l-.3 2.05h-13.06l.54-3 9.5.02.08-.54q.165-1.215.06-2.49c-.07-.86-.32-1.58-.76-2.19-.44-.6-1.15-.93-2.15-.98-1.02-.05-1.87.14-2.53.58a4.94 4.94 0 0 0-1.62 1.77c-.41.74-.73 1.55-.94 2.42s-.37 1.71-.47 2.51l-.3 2.44c-.08.73-.11 1.47-.08 2.24.03.76.16 1.47.39 2.12s.61 1.18 1.13 1.58 1.25.62 2.18.65c1.03.03 1.96-.19 2.79-.64a9 9 0 0 0 2.28-1.79l1.67 2.25c-.57.73-1.23 1.33-1.98 1.81s-1.55.83-2.42 1.05c-.86.23-1.76.33-2.68.32M240.1 177c.86.03 1.59-.15 2.2-.54.6-.38 1.09-.9 1.46-1.55q.555-.975.81-2.13l3.22-.02c-.2 1.35-.65 2.58-1.36 3.68a7.9 7.9 0 0 1-2.73 2.61c-1.11.64-2.38.95-3.8.92-1.43-.03-2.6-.33-3.52-.9a5.86 5.86 0 0 1-2.1-2.29c-.48-.95-.79-2-.92-3.17s-.13-2.37.02-3.6l.32-2.42c.17-1.31.48-2.57.91-3.79.44-1.21 1.03-2.29 1.78-3.23s1.67-1.68 2.76-2.21q1.635-.795 3.87-.72c1.5.04 2.7.42 3.62 1.15.91.73 1.57 1.68 1.97 2.85s.57 2.44.52 3.81l-3.22-.02c.03-.74-.03-1.47-.18-2.2-.15-.72-.44-1.32-.89-1.81-.45-.48-1.12-.75-2.01-.79-1.01-.04-1.85.14-2.53.54s-1.24.94-1.66 1.62-.75 1.44-.98 2.28c-.23.83-.4 1.67-.51 2.5l-.32 2.44c-.08.72-.13 1.47-.15 2.27-.02.79.06 1.54.23 2.25s.51 1.28 1.01 1.73 1.23.69 2.19.71Zm16.84-14.13-2.9 16.7h-3.44l3.74-21.51h3.24zm-1.59 5.21-1.25-.06c.15-1.13.4-2.3.77-3.53.36-1.23.87-2.36 1.52-3.41a7.9 7.9 0 0 1 2.46-2.53q1.485-.96 3.57-.9c1.07.04 1.94.3 2.59.78.66.48 1.14 1.1 1.45 1.86s.5 1.6.57 2.5c.07.91.05 1.81-.04 2.69l-2.35 14.09h-3.44l2.37-14.15q.105-1.035.03-2.1c-.05-.71-.25-1.31-.61-1.81s-.97-.76-1.85-.79c-.91-.03-1.71.2-2.4.68-.68.48-1.26 1.1-1.72 1.86s-.83 1.57-1.1 2.42c-.27.86-.46 1.65-.57 2.4m15.4 1.77.26-2.03c.17-1.29.49-2.54.96-3.76s1.1-2.32 1.88-3.3 1.73-1.76 2.83-2.33c1.11-.57 2.39-.83 3.85-.78 1.38.04 2.52.36 3.44.96.91.6 1.63 1.39 2.14 2.38s.84 2.06 1 3.24.18 2.37.06 3.56l-.26 2.05q-.255 1.905-.96 3.75t-1.89 3.3c-.79.97-1.74 1.74-2.84 2.31-1.11.56-2.38.82-3.83.77-1.39-.03-2.54-.34-3.45-.95s-1.62-1.4-2.13-2.38-.84-2.06-1-3.24-.18-2.36-.06-3.54Zm3.7-2.05-.26 2.09c-.07.66-.09 1.4-.08 2.2s.13 1.57.34 2.3.57 1.33 1.06 1.82c.5.48 1.19.75 2.08.79 1.01.05 1.86-.13 2.55-.56s1.27-.99 1.73-1.7.81-1.49 1.06-2.35.43-1.7.54-2.53l.26-2.07c.07-.66.09-1.39.08-2.19s-.13-1.56-.34-2.3-.57-1.35-1.06-1.84c-.5-.49-1.2-.75-2.1-.79-.94-.04-1.76.16-2.46.59q-1.05.645-1.74 1.74c-.46.73-.83 1.52-1.1 2.37s-.46 1.66-.57 2.44Zm24.09-18.76-5.31 30.53h-3.42l5.31-30.53zm1.09 20.81.26-2.03c.17-1.29.49-2.54.96-3.76s1.1-2.32 1.88-3.3 1.73-1.76 2.83-2.33c1.11-.57 2.39-.83 3.85-.78 1.38.04 2.52.36 3.44.96.91.6 1.63 1.39 2.14 2.38s.84 2.06 1 3.24.18 2.37.06 3.56l-.26 2.05q-.255 1.905-.96 3.75t-1.89 3.3c-.79.97-1.74 1.74-2.84 2.31-1.11.56-2.38.82-3.83.77-1.39-.03-2.54-.34-3.45-.95s-1.62-1.4-2.13-2.38-.84-2.06-1-3.24-.18-2.36-.06-3.54Zm3.7-2.05-.26 2.09c-.07.66-.09 1.4-.08 2.2s.13 1.57.34 2.3.57 1.33 1.06 1.82c.5.48 1.19.75 2.08.79 1.01.05 1.86-.13 2.55-.56s1.27-.99 1.73-1.7.81-1.49 1.06-2.35.43-1.7.54-2.53l.26-2.07c.07-.66.09-1.39.08-2.19s-.13-1.56-.34-2.3-.57-1.35-1.06-1.84c-.5-.49-1.2-.75-2.1-.79-.94-.04-1.76.16-2.46.59q-1.05.645-1.74 1.74c-.46.73-.83 1.52-1.1 2.37s-.46 1.66-.57 2.44Zm30.12-9.74h3.1l-3.68 21.69c-.21 1.59-.68 3.03-1.39 4.31-.72 1.29-1.68 2.29-2.9 3.01s-2.69 1.06-4.41 1c-.76-.01-1.51-.14-2.26-.37s-1.46-.55-2.14-.95-1.26-.88-1.75-1.42l1.61-2.46a6.8 6.8 0 0 0 1.96 1.56c.74.39 1.55.6 2.44.63q1.605.06 2.73-.6c1.125-.66 1.34-1.05 1.78-1.84q.66-1.185.87-2.67l2.92-17.33 1.11-4.55Zm-13.96 11.79.26-1.97c.15-1.21.4-2.42.77-3.64.36-1.22.87-2.34 1.51-3.35a7.4 7.4 0 0 1 2.46-2.42c1-.6 2.22-.87 3.65-.82 1.25.04 2.24.38 2.97 1.03.74.65 1.28 1.48 1.64 2.48.36 1.01.57 2.07.65 3.18s.07 2.16 0 3.14l-.36 2.68c-.17 1.06-.45 2.17-.82 3.33-.38 1.16-.88 2.24-1.5 3.23a7.5 7.5 0 0 1-2.34 2.39c-.93.6-2.05.88-3.35.84-1.35-.04-2.42-.38-3.21-1.03s-1.37-1.48-1.75-2.5q-.57-1.53-.66-3.27t.09-3.33Zm3.66-2.01-.22 2.03c-.08.69-.13 1.43-.15 2.23-.02.79.05 1.55.22 2.27s.49 1.31.97 1.78 1.2.72 2.14.75 1.79-.22 2.53-.74c.75-.52 1.37-1.18 1.88-1.99q.75-1.215 1.11-2.46l.89-5.69a6.4 6.4 0 0 0-.17-1.78 5.9 5.9 0 0 0-.67-1.68c-.3-.52-.7-.94-1.17-1.26-.48-.32-1.04-.51-1.69-.55-1.01-.05-1.85.13-2.53.55s-1.24.98-1.66 1.69-.75 1.49-.98 2.35c-.23.85-.4 1.69-.51 2.51Zm22.18-9.78-3.74 21.51h-3.42l3.74-21.51zm-2.62-5.67c.03-.58.21-1.09.56-1.52.34-.43.81-.65 1.41-.67.62-.01 1.11.19 1.45.62.34.42.5.93.48 1.51-.03.56-.22 1.04-.58 1.46s-.83.63-1.41.65c-.61.01-1.08-.18-1.42-.59s-.5-.89-.49-1.46m17.31 14.14-.42 2.58-2.19-.02q-1.05 0-2.1.24c-.7.16-1.34.41-1.93.75s-1.08.78-1.47 1.33-.63 1.22-.73 2.02c-.08.65-.06 1.23.07 1.74s.38.91.78 1.21c.39.3.94.45 1.66.45s1.46-.17 2.15-.5 1.28-.78 1.78-1.35.83-1.22.98-1.95l.54 1.67c-.16.69-.43 1.36-.8 2q-.57.96-1.38 1.71c-.81.75-1.15.89-1.82 1.17-.67.29-1.38.43-2.14.43-1.21 0-2.22-.27-3.04-.82-.82-.54-1.43-1.28-1.83-2.2s-.56-1.96-.48-3.13c.07-1.25.37-2.33.9-3.26.54-.93 1.24-1.69 2.1-2.3a9.6 9.6 0 0 1 2.89-1.35q1.605-.45 3.33-.45l3.14.02Zm-2.15 9.36 1.89-11.71c.07-.69.03-1.29-.11-1.82-.14-.52-.42-.94-.83-1.24s-1-.46-1.76-.46c-.69-.01-1.31.12-1.85.41s-.99.68-1.34 1.18-.59 1.09-.73 1.75l-3.4.02c.09-.97.37-1.85.83-2.63a7.1 7.1 0 0 1 1.76-2.03 8.12 8.12 0 0 1 5.11-1.72c1.35.01 2.48.29 3.38.84s1.55 1.32 1.96 2.31c.4.99.54 2.14.41 3.47l-1.75 10.61c-.12.76-.17 1.48-.14 2.19.03.7.06 1.42.1 2.17l-.04.34-3.44.02c-.13-.61-.19-1.23-.18-1.85s.06-1.24.14-1.85Zm30.5-4.02c.08-.65.06-1.21-.07-1.67s-.34-.87-.65-1.23-.68-.68-1.12-.95c-.44-.28-.93-.54-1.46-.79-.94-.42-1.83-.91-2.65-1.47s-1.55-1.19-2.17-1.89-1.08-1.5-1.39-2.4-.43-1.9-.35-3.03c.09-1.27.41-2.42.96-3.44s1.27-1.89 2.17-2.61c.89-.72 1.9-1.27 3.03-1.64s2.3-.54 3.52-.52c1.72.04 3.17.46 4.33 1.25s2.03 1.86 2.59 3.2.81 2.82.73 4.45l-5.17-.02c.05-.73.01-1.43-.12-2.12s-.42-1.25-.85-1.69c-.44-.44-1.09-.68-1.97-.71-.76-.01-1.42.15-2.01.5s-1.05.8-1.41 1.38-.59 1.23-.7 1.96c-.07.56 0 1.05.18 1.49s.45.83.79 1.17.73.65 1.16.91c.44.27.87.5 1.31.7 1.02.46 1.94.98 2.77 1.54s1.54 1.2 2.13 1.92 1.02 1.54 1.29 2.46.36 2 .27 3.2c-.11 1.3-.42 2.46-.95 3.48a8.1 8.1 0 0 1-2.09 2.58c-.86.7-1.85 1.23-2.96 1.59s-2.31.52-3.6.5c-1.35-.04-2.56-.3-3.63-.77-1.07-.48-1.96-1.14-2.67-1.99-.72-.85-1.25-1.83-1.61-2.96s-.5-2.34-.44-3.66l5.21.02c-.04.65-.02 1.28.05 1.88s.24 1.14.5 1.6.63.83 1.12 1.09c.49.27 1.12.4 1.89.42.76 0 1.42-.16 1.99-.47s1.03-.75 1.38-1.31.57-1.22.67-1.96Zm19.81-1.96 1.31-.06c-.12 1.11-.32 2.27-.61 3.46q-.435 1.785-1.26 3.33a6.9 6.9 0 0 1-2.22 2.47q-1.38.93-3.45.87c-1.11-.03-2.01-.28-2.68-.76s-1.18-1.12-1.52-1.91-.55-1.65-.63-2.58-.07-1.85.02-2.75l2.33-13.91h4.99l-2.33 13.97c-.03.32-.05.69-.06 1.1-.01.42.02.81.11 1.18q.135.555.48.93c.23.25.58.39 1.04.42 1.07.05 1.92-.22 2.53-.83s1.07-1.37 1.36-2.29.48-1.81.58-2.65Zm-1.23 4.27 2.8-16.12h5.03l-3.74 21.51h-4.69zm18.79-.46c.08-.56-.05-1.02-.39-1.4s-.75-.7-1.24-.97-.93-.51-1.33-.71c-.7-.33-1.37-.69-2-1.08s-1.18-.84-1.66-1.34-.84-1.08-1.1-1.73-.36-1.41-.31-2.29c.05-1.02.3-1.94.74-2.75s1.01-1.51 1.73-2.08 1.53-1 2.43-1.3c.91-.3 1.85-.44 2.83-.43 1.35.03 2.53.32 3.55.87s1.8 1.33 2.35 2.33.81 2.18.79 3.53h-4.95c.01-.48-.03-.93-.12-1.36s-.29-.79-.59-1.06-.73-.41-1.28-.4c-.49 0-.92.11-1.3.32s-.69.5-.94.87c-.25.36-.42.78-.5 1.24-.07.4 0 .75.17 1.04.18.3.42.56.74.78.31.22.64.42.99.59s.67.32.94.44q1.485.72 2.73 1.56a6.3 6.3 0 0 1 1.95 2.06c.47.81.67 1.82.59 3.04-.05 1.07-.32 2.02-.8 2.84s-1.09 1.51-1.85 2.06-1.61.96-2.55 1.23c-.95.27-1.92.39-2.93.37-1.37-.04-2.57-.36-3.63-.95-1.05-.6-1.87-1.41-2.45-2.45-.58-1.03-.86-2.24-.83-3.62l4.77.02q-.015.87.18 1.59t.75 1.11c.37.26.89.4 1.55.42.49 0 .95-.09 1.37-.27s.78-.44 1.06-.79.47-.79.55-1.3Zm19.95-15.66-.7 3.88h-10.48l.72-3.88zm-6.93-5.29h4.97l-3.5 20.57c-.04.34-.06.68-.05 1.01 0 .33.09.61.24.83s.45.34.88.36c.23 0 .45-.02.68-.05s.45-.07.68-.11l-.42 4.09c-.45.16-.9.27-1.35.35-.45.07-.91.1-1.39.09-1.18-.01-2.09-.32-2.74-.91-.65-.6-1.09-1.36-1.32-2.31a8.6 8.6 0 0 1-.19-2.96l3.52-20.97Zm14.9 27.19c-1.43-.03-2.65-.3-3.65-.83s-1.79-1.25-2.38-2.18c-.58-.92-.98-1.96-1.18-3.13-.21-1.17-.25-2.4-.13-3.7l.24-1.93c.17-1.35.49-2.66.94-3.94.46-1.27 1.07-2.42 1.85-3.43a8.26 8.26 0 0 1 2.87-2.38c1.14-.57 2.48-.84 4.02-.82 1.47.04 2.66.37 3.56.98.9.62 1.58 1.42 2.04 2.42s.74 2.11.83 3.33q.15 1.83-.09 3.66l-.36 2.45h-13.79l.66-3.72 8.73.02.1-.56c.09-.61.12-1.24.08-1.9s-.22-1.21-.54-1.68c-.32-.46-.87-.72-1.65-.77-.83-.04-1.52.14-2.05.55-.53.4-.94.94-1.24 1.6s-.52 1.37-.66 2.11-.24 1.43-.31 2.07l-.24 1.95q-.105.93-.09 1.89c0 .64.1 1.23.28 1.78s.48 1 .91 1.34 1.04.52 1.84.54c.95.03 1.83-.15 2.62-.54a9.8 9.8 0 0 0 2.23-1.49l1.81 3.12c-.54.74-1.21 1.35-2 1.83s-1.64.83-2.54 1.04c-.91.22-1.81.32-2.71.31Zm18.11-17.03-2.88 16.64h-5.01l3.74-21.51h4.67zm-1.67 5.15-1.23.04c.11-1.14.32-2.33.66-3.56.33-1.23.81-2.38 1.45-3.44s1.44-1.92 2.42-2.56c.97-.65 2.16-.95 3.57-.91 1.1.04 1.97.32 2.62.83s1.12 1.17 1.42 1.98.47 1.68.52 2.61.02 1.84-.07 2.73l-2.29 13.78h-4.97l2.29-13.83c.05-.57.07-1.14.04-1.72s-.18-1.07-.47-1.47-.79-.61-1.5-.61c-.77-.04-1.41.15-1.94.56q-.78.615-1.29 1.59c-.51.975-.6 1.33-.79 2.05s-.33 1.37-.44 1.95Zm25.78-10.02-.7 3.88H484.7l.72-3.88zm-6.93-5.29h4.97l-3.5 20.57c-.04.34-.06.68-.05 1.01 0 .33.09.61.24.83s.45.34.88.36c.23 0 .45-.02.68-.05s.45-.07.68-.11l-.42 4.09c-.45.16-.9.27-1.35.35-.45.07-.91.1-1.39.09-1.18-.01-2.09-.32-2.74-.91-.65-.6-1.09-1.36-1.32-2.31a8.6 8.6 0 0 1-.19-2.96l3.52-20.97Zm18.78 13.68-.52 3.18-1.85-.02c-.57 0-1.1.09-1.59.26s-.93.42-1.33.76q-.6.495-.96 1.17c-.25.45-.4.96-.47 1.53-.05.42-.05.83.01 1.21s.22.7.47.95.62.38 1.11.4c.53 0 1.05-.11 1.55-.34.5-.22.93-.54 1.28-.94s.57-.88.65-1.42l.87 2.09c-.21.64-.49 1.24-.83 1.81s-.76 1.07-1.24 1.51-1.02.79-1.61 1.04c-.59.26-1.25.38-1.98.37-1.18-.01-2.18-.31-3.01-.88s-1.45-1.33-1.86-2.28c-.41-.94-.59-1.97-.54-3.1.08-1.27.38-2.37.9-3.29s1.21-1.68 2.06-2.28 1.81-1.04 2.89-1.32 2.21-.43 3.39-.43l2.6.02Zm-2.11 8.47 1.67-10.38c.05-.45.06-.89.01-1.33s-.2-.79-.45-1.07-.66-.42-1.21-.44c-.56-.01-1.02.1-1.39.35s-.67.57-.88.98q-.33.615-.45 1.35l-4.97.02c.08-1.06.35-2.01.83-2.84.47-.83 1.08-1.55 1.84-2.14s1.61-1.04 2.55-1.34 1.92-.45 2.93-.44c1.4.03 2.59.33 3.57.91.97.58 1.69 1.39 2.14 2.43.45 1.03.6 2.25.46 3.66l-1.57 9.84c-.12.78-.21 1.58-.27 2.39s.02 1.59.23 2.35l-.02.36-4.89.02c-.21-.75-.31-1.53-.29-2.33s.08-1.58.17-2.35Zm-1.41-19.82 4.75-6.06h5.98l-6.24 6.06zm17 2.96.97 17.73-.46 3.78h-3.08l-2.5-21.51zm-.32 17.21 6.24-17.21h5.31l-9.2 21.51h-3.22l.87-4.29Zm19.18 4.69c-1.43-.03-2.65-.3-3.65-.83s-1.79-1.25-2.38-2.18c-.58-.92-.98-1.96-1.18-3.13-.21-1.17-.25-2.4-.13-3.7l.24-1.93c.17-1.35.49-2.66.94-3.94.46-1.27 1.07-2.42 1.85-3.43a8.26 8.26 0 0 1 2.87-2.38c1.14-.57 2.48-.84 4.02-.82 1.47.04 2.66.37 3.56.98.9.62 1.58 1.42 2.04 2.42s.74 2.11.83 3.33q.15 1.83-.09 3.66l-.36 2.45h-13.79l.66-3.72 8.73.02.1-.56c.09-.61.12-1.24.08-1.9s-.22-1.21-.54-1.68c-.32-.46-.87-.72-1.65-.77-.83-.04-1.52.14-2.05.55-.53.4-.94.94-1.24 1.6s-.52 1.37-.66 2.11-.24 1.43-.31 2.07l-.24 1.95q-.105.93-.09 1.89c0 .64.1 1.23.28 1.78s.48 1 .91 1.34 1.04.52 1.84.54c.95.03 1.83-.15 2.62-.54a9.8 9.8 0 0 0 2.23-1.49l1.81 3.12c-.54.74-1.21 1.35-2 1.83s-1.64.83-2.54 1.04c-.91.22-1.81.32-2.71.31Zm20.87-30.92-5.29 30.53h-5.01l5.31-30.53z"/>
  </g>
</svg>
