<svg xmlns="http://www.w3.org/2000/svg" xmlns:xlink="http://www.w3.org/1999/xlink" data-name="Layer 2" viewBox="0 0 422.94 455.8">
  <defs>
    <linearGradient id="a" x1="68.56" x2="379.09" y1="115.02" y2="402.17" gradientUnits="userSpaceOnUse">
      <stop offset="0" stop-color="#fff"/>
      <stop offset="1" stop-color="#08bf00"/>
    </linearGradient>
  </defs>
  <g data-name="Layer 1">
    <path fill="url(#a)" d="M15.76 171.83c8.7 0 15.76 7.06 15.76 15.76s-7.06 15.76-15.76 15.76S0 196.29 0 187.59s7.05-15.76 15.76-15.76m165.65-74.76c11.91 0 21.57 9.66 21.57 21.57s-9.66 21.57-21.57 21.57-21.57-9.66-21.57-21.57 9.66-21.57 21.57-21.57M79.87 92.76c8.7 0 15.76 7.06 15.76 15.76s-7.06 15.76-15.76 15.76-15.76-7.05-15.76-15.76 7.06-15.76 15.76-15.76m-55.31 14.8c6 0 10.87 4.87 10.87 10.87s-4.87 10.87-10.87 10.87-10.87-4.87-10.87-10.87 4.87-10.87 10.87-10.87m76.54-56.47c6 0 10.87 4.87 10.87 10.87s-4.87 10.87-10.87 10.87-10.87-4.87-10.87-10.87 4.87-10.87 10.87-10.87m58.34-10.53c6 0 10.87 4.87 10.87 10.87s-4.87 10.87-10.87 10.87-10.87-4.87-10.87-10.87 4.87-10.87 10.87-10.87m67.75-5.61c8.7 0 15.76 7.06 15.76 15.76s-7.05 15.76-15.76 15.76-15.76-7.06-15.76-15.76 7.06-15.76 15.76-15.76M181.2 0c6 0 10.87 4.87 10.87 10.87s-4.87 10.87-10.87 10.87-10.87-4.87-10.87-10.87S175.2 0 181.2 0m85.03 106.88c-4.03-20.2-23.72-32.92-42.98-19.67-19.64 13.51-3 40.52-19.64 56.65-5.52 5.35-16.94 10.46-28.41 8.11-14.62-2.99-15.05-8.69-22.11-16.58-20.39-22.77-62.57-13.81-69.61 19.43-2.19 10.36.02 22.16 5.5 29.9 5.59 7.89 11.45 9.61 15.15 22.27 3.51 12.01.72 22.78-5.29 31.5-14.82 21.5-37.71 6.48-50.06 26.21-5.45 8.7-5.56 21.06.08 29.76 5.39 8.31 13.69 11.26 26.3 12.41 17.19 86.42 81.83 148.94 172.85 148.94 96.62 0 174.94-78.32 174.94-174.94 0-90.46-68.66-164.86-156.71-173.98ZM99.81 2.7c4.05 0 7.34 3.29 7.34 7.34s-3.28 7.34-7.34 7.34-7.34-3.29-7.34-7.34 3.28-7.34 7.34-7.34m-28 189.43c11.91 0 21.57 9.66 21.57 21.57s-9.66 21.57-21.57 21.57-21.57-9.66-21.57-21.57 9.66-21.57 21.57-21.57"/>
    <path fill="#006837" d="M236.93 395.1h-61.08v-99.39c23.12-13.46 46.29-17.9 74.46-11.64 2.81 1.1 5.81 1.89 8.96 2.3 1.69.22 3.42.34 5.19.34 19.11 0 34.6-13.57 34.6-30.31s-15.49-30.31-34.6-30.31c-2.01 0-3.97.15-5.88.44s-.07 0-.07 0c-.76.12-1.52.26-2.27.41-25.78 5.06-52.49 23.25-80.4 58.63V201.5c-.03-.39-.04-.78-.04-1.17 0-9.23 7.48-16.72 16.71-16.72h51.4c26.59 0 45.28 1.13 56.07 3.45 10.74 2.31 19.86 6.26 27.37 11.83 8.79 6.46 15.52 14.54 20.14 24.21 4.62 9.71 6.9 20.46 6.9 32.29 0 12.62-2.28 23.71-6.84 33.28-4.56 9.61-11.29 17.45-20.19 23.61-6.73 4.63-14.68 7.94-23.81 9.96-9.12 2.02-23.75 3.06-43.83 3.06h-22.81v69.81Z"/>
  </g>
</svg>
